<svg xmlns="http://www.w3.org/2000/svg" xmlns:bx="https://boxy-svg.com" data-bx-workspace="master" preserveAspectRatio="xMinYMin slice" height="52" width="256" viewBox="10 80 256 256">
<svg viewBox="0 0 500 500" width="256" height="256">
<defs/>
<text xmlns="http://www.w3.org/2000/svg" x="101" y="249" style="fill:#333333; font-size: 99px; word-spacing: 0px; letter-spacing: -9.6px; font-family:Arial;">RECiSA
</text>
<path d="M 55.303 214.036 L 48.819 214.002 L 48.826 212.961 L 55.309 212.996 Z M 55.241 225.62 L 48.757 225.586 L 48.763 224.545 L 55.247 224.581 Z M 55.179 237.205 L 48.696 237.171 L 48.701 236.13 L 55.185 236.165 Z M 55.117 248.79 L 48.634 248.756 L 48.639 247.715 L 55.123 247.75 Z M 48.652 245.399 L 51.894 245.416 L 51.887 246.456 L 48.646 246.439 Z M 48.664 243.081 L 51.906 243.098 L 51.9 244.139 L 48.658 244.122 Z M 48.676 240.765 L 51.918 240.781 L 51.912 241.823 L 48.67 241.804 Z M 48.688 238.448 L 51.931 238.465 L 51.924 239.505 L 48.683 239.487 Z M 48.713 233.814 L 51.955 233.831 L 51.95 234.872 L 48.708 234.854 Z M 48.726 231.497 L 51.968 231.514 L 51.962 232.554 L 48.72 232.537 Z M 48.739 229.179 L 51.981 229.197 L 51.974 230.238 L 48.733 230.22 Z M 48.751 226.863 L 51.993 226.881 L 51.986 227.92 L 48.744 227.903 Z M 48.776 222.229 L 52.017 222.245 L 52.011 223.287 L 48.77 223.27 Z M 48.788 219.912 L 52.03 219.929 L 52.024 220.969 L 48.782 220.952 Z M 48.8 217.594 L 52.042 217.612 L 52.037 218.653 L 48.795 218.635 Z M 48.813 215.278 L 52.055 215.295 L 52.049 216.336 L 48.807 216.318 Z M 48.838 210.644 L 52.079 210.661 L 52.074 211.702 L 48.831 211.684 Z M 48.85 208.327 L 52.092 208.345 L 52.086 209.384 L 48.844 209.367 Z M 61.311 219.701 C 57.483 216.407 54.715 212.081 53.325 207.294 L 48.014 207.294 L 47.786 249.904 C 47.783 250.463 47.998 250.991 48.392 251.389 C 48.786 251.787 49.311 252.008 49.872 252.011 L 63.168 252.083 L 63.333 221.269 C 62.638 220.78 61.961 220.26 61.311 219.701" style="fill: rgb(40, 41, 43); fill-opacity: 1; fill-rule: nonzero; stroke: none;" id="path40"/>
<path d="M 48.961 187.474 L 52.203 187.491 L 52.198 188.532 L 48.956 188.514 Z M 48.974 185.157 L 52.215 185.174 L 52.21 186.215 L 48.969 186.198 Z M 48.987 182.84 L 52.228 182.858 L 52.223 183.897 L 48.981 183.881 Z M 48.999 180.523 L 52.24 180.54 L 52.235 181.581 L 48.993 181.564 Z M 49.011 178.206 L 55.494 178.241 L 55.489 179.281 L 49.006 179.246 Z M 48.932 192.939 L 48.937 192.108 L 52.178 192.125 L 52.173 192.939 L 53.325 192.939 C 53.53 192.235 53.769 191.542 54.032 190.859 L 48.944 190.831 L 48.949 189.791 L 54.458 189.82 C 56.003 186.28 58.335 183.093 61.311 180.532 C 62.03 179.913 62.784 179.343 63.56 178.81 L 63.581 175.035 L 50.284 174.964 C 49.724 174.961 49.196 175.176 48.799 175.569 C 48.4 175.964 48.179 176.49 48.176 177.05 L 48.091 192.939 L 48.932 192.939" style="fill: rgb(40, 41, 43); fill-opacity: 1; fill-rule: nonzero; stroke: none;" id="path42"/>
<path d="M 58.267 203.788 C 60.114 215.392 70.089 224.283 82.081 224.283 C 95.38 224.283 106.202 213.346 106.202 199.903 C 106.202 186.461 95.38 175.524 82.081 175.524 C 70.089 175.524 60.114 184.416 58.267 196.018 L 36.659 196.018 C 34.537 196.018 32.815 197.759 32.815 199.903 L 32.815 199.903 C 32.815 202.05 34.537 203.788 36.659 203.788 L 58.267 203.788" style="fill: rgb(40, 41, 43); fill-opacity: 1; fill-rule: nonzero; stroke: none;" id="path44"/>
<path d="M 99.212 200.117 C 99.212 208.503 91.527 215.3 82.047 215.3 C 72.563 215.3 64.878 208.503 64.878 200.117 C 64.878 191.731 72.563 184.933 82.047 184.933 C 91.527 184.933 99.212 191.731 99.212 200.117" style="fill: rgb(255, 255, 255); fill-opacity: 1; fill-rule: nonzero; stroke: none;" id="path46"/>
<path d="M 411.113 240.498 C 402.617 240.498 395.731 233.611 395.731 225.115 C 395.731 217.577 401.156 211.309 408.314 209.993 L 423.803 233.806 C 421.031 237.846 416.383 240.498 411.113 240.498" style="fill: rgb(40, 41, 43); fill-opacity: 1; fill-rule: nonzero; stroke: none;" id="path14"/>
<path d="M 411.113 248.037 C 417.858 248.037 423.925 245.089 428.104 240.419 L 435.523 251.824 L 422.514 251.824 L 422.514 246.688 C 422.514 246.37 422.254 246.11 421.936 246.11 C 421.618 246.11 421.358 246.37 421.358 246.688 L 421.358 251.824 L 416.775 251.824 L 416.775 248.808 C 416.775 248.489 416.518 248.23 416.197 248.23 C 415.88 248.23 415.62 248.489 415.62 248.808 L 415.62 251.824 L 411.037 251.824 L 411.037 248.808 C 411.037 248.489 410.778 248.23 410.459 248.23 C 410.14 248.23 409.882 248.489 409.882 248.808 L 409.882 251.824 L 405.297 251.824 L 405.297 248.808 C 405.297 248.489 405.038 248.23 404.721 248.23 C 404.401 248.23 404.143 248.489 404.143 248.808 L 404.143 251.824 L 399.56 251.824 L 399.56 248.808 C 399.56 248.489 399.301 248.23 398.982 248.23 C 398.663 248.23 398.404 248.489 398.404 248.808 L 398.404 251.824 L 393.821 251.824 L 393.821 246.688 C 393.821 246.37 393.563 246.11 393.244 246.11 C 392.925 246.11 392.666 246.37 392.666 246.688 L 392.666 251.824 L 382.877 251.824 L 382.877 242.837 L 387.993 242.837 C 388.313 242.837 388.572 242.579 388.572 242.26 C 388.572 241.941 388.313 241.683 387.993 241.683 L 382.877 241.683 L 382.877 237.098 L 385.875 237.098 C 386.193 237.098 386.451 236.841 386.451 236.521 C 386.451 236.203 386.193 235.944 385.875 235.944 L 382.877 235.944 L 382.877 231.36 L 385.875 231.36 C 386.193 231.36 386.451 231.101 386.451 230.782 C 386.451 230.463 386.193 230.206 385.875 230.206 L 382.877 230.206 L 382.877 228.871 L 388.604 228.871 C 390.35 239.721 399.778 248.037 411.113 248.037" style="fill: rgb(40, 41, 43); fill-opacity: 1; fill-rule: nonzero; stroke: none;" id="path16"/>
<path d="M 460.207 334.453 m -23.006 0 a 23.006 23.006 0 1 0 46.012 0 a 23.006 23.006 0 1 0 -46.012 0 Z M 460.207 334.453 m -13.804 0 a 13.804 13.804 0 0 1 27.608 0 a 13.804 13.804 0 0 1 -27.608 0 Z" data-bx-shape="ring 460.207 334.453 13.804 13.804 23.006 23.006 1@6c0af7f7" style="fill: rgb(255, 255, 255);" transform="matrix(-0.757436, 0.652909, -0.652909, -0.757436, 978.763569, 178.118534)"/>
<path d="M 423.803 233.806 C 425.499 231.333 426.493 228.341 426.493 225.115 C 426.493 216.621 419.607 209.734 411.113 209.734 C 410.156 209.734 409.222 209.825 408.314 209.992 L 404.117 203.541 C 406.323 202.828 408.672 202.441 411.113 202.441 C 423.683 202.441 433.91 212.668 433.91 225.239 C 433.91 231.063 431.711 236.383 428.104 240.419 L 423.803 233.806" style="fill: rgb(40, 41, 43); fill-opacity: 1; fill-rule: nonzero; stroke: none;" id="path18"/>
<path d="M 388.604 221.607 L 382.877 221.607 L 382.877 219.883 L 385.875 219.883 C 386.193 219.883 386.451 219.625 386.451 219.305 C 386.451 218.987 386.193 218.729 385.875 218.729 L 382.877 218.729 L 382.877 214.144 L 387.993 214.144 C 388.313 214.144 388.572 213.886 388.572 213.568 C 388.572 213.248 388.313 212.99 387.993 212.99 L 382.877 212.99 L 382.877 208.896 L 385.903 208.896 C 386.224 208.896 386.486 208.635 386.486 208.314 C 386.486 207.992 386.224 207.731 385.903 207.731 L 382.877 207.731 L 382.877 203.102 L 385.903 203.102 C 386.224 203.102 386.486 202.841 386.486 202.519 C 386.486 202.196 386.224 201.935 385.903 201.935 L 382.877 201.935 L 382.877 197.307 L 385.903 197.307 C 386.224 197.307 386.486 197.047 386.486 196.725 C 386.486 196.403 386.224 196.142 385.903 196.142 L 382.877 196.142 L 382.877 191.513 L 385.903 191.513 C 386.224 191.513 386.486 191.252 386.486 190.93 C 386.486 190.608 386.224 190.348 385.903 190.348 L 382.877 190.348 L 382.877 185.719 L 388.044 185.719 C 388.366 185.719 388.627 185.458 388.627 185.136 C 388.627 184.814 388.366 184.553 388.044 184.553 L 382.877 184.553 L 382.877 170.888 L 404.117 203.541 C 396.076 206.139 389.975 213.091 388.604 221.607" style="fill: rgb(40, 41, 43); fill-opacity: 1; fill-rule: nonzero; stroke: none;" id="path54"/>
<path d="M 382.877 225.623 L 382.877 228.872 L 368.183 228.872 C 366.176 228.872 364.549 227.245 364.549 225.239 C 364.549 223.232 366.176 221.607 368.183 221.607 L 382.877 221.607 L 382.877 223.46 L 382.877 224.466 L 382.877 225.623" style="fill: rgb(40, 41, 43); fill-opacity: 1; fill-rule: nonzero; stroke: none;" id="path56"/>
</svg>
</svg>