<?xml version="1.0" encoding="UTF-8" standalone="no"?>
<!DOCTYPE svg PUBLIC "-//W3C//DTD SVG 1.1//EN"
 "http://www.w3.org/Graphics/SVG/1.1/DTD/svg11.dtd">
<!-- Generated by graphviz version 2.44.1 (20200629.0846)
 -->
<!-- Title: PRECiSA Pages: 1 -->
<svg width="896pt" height="182pt"
 viewBox="0.00 0.00 896.00 182.00" xmlns="http://www.w3.org/2000/svg" xmlns:xlink="http://www.w3.org/1999/xlink">
<g id="graph0" class="graph" transform="scale(1 1) rotate(0) translate(4 178)">
<title>PRECiSA</title>
<polygon fill="white" stroke="transparent" points="-4,4 -4,-178 892,-178 892,4 -4,4"/>
<g id="clust1" class="cluster">
<title>cluster_NASALib</title>
<polygon fill="none" stroke="black" points="8,-8 8,-83 784,-83 784,-8 8,-8"/>
<text text-anchor="middle" x="396" y="-67.8" font-family="Times,serif" font-size="14.00">NASALib</text>
</g>
<g id="clust2" class="cluster">
<title>cluster_PRECiSA</title>
<polygon fill="none" stroke="black" points="375,-91 375,-166 463,-166 463,-91 375,-91"/>
<text text-anchor="middle" x="419" y="-150.8" font-family="Times,serif" font-size="14.00">PRECiSA</text>
</g>
<g id="clust3" class="cluster">
<title>cluster_PVS Prelude</title>
<polygon fill="none" stroke="black" points="792,-8 792,-83 880,-83 880,-8 792,-8"/>
<text text-anchor="middle" x="836" y="-67.8" font-family="Times,serif" font-size="14.00">PVS Prelude</text>
</g>
<!-- /Users/mmoscato/nasa/precisa/gitlab_github/PVS/PRECiSA -->
<g id="node1" class="node">
<title>/Users/mmoscato/nasa/precisa/gitlab_github/PVS/PRECiSA</title>
<polygon fill="#f7e28d" stroke="black" points="454.5,-135 383.5,-135 383.5,-99 454.5,-99 454.5,-135"/>
<text text-anchor="middle" x="419" y="-113.3" font-family="Times,serif" font-size="14.00">PRECiSA</text>
</g>
<!-- /Users/mmoscato/nasa/pvslib/pvslib&#45;github/analysis -->
<g id="node2" class="node">
<title>/Users/mmoscato/nasa/pvslib/pvslib&#45;github/analysis</title>
<polygon fill="#fcfcd7" stroke="black" points="776,-52 716,-52 716,-16 776,-16 776,-52"/>
<text text-anchor="middle" x="746" y="-30.3" font-family="Times,serif" font-size="14.00">analysis</text>
</g>
<!-- /Users/mmoscato/nasa/precisa/gitlab_github/PVS/PRECiSA&#45;&gt;/Users/mmoscato/nasa/pvslib/pvslib&#45;github/analysis -->
<g id="edge1" class="edge">
<title>/Users/mmoscato/nasa/precisa/gitlab_github/PVS/PRECiSA&#45;&gt;/Users/mmoscato/nasa/pvslib/pvslib&#45;github/analysis</title>
<path fill="none" stroke="black" d="M454.62,-120C539.37,-120 746,-120 746,-120 746,-120 746,-62.24 746,-62.24"/>
<polygon fill="black" stroke="black" points="749.5,-62.24 746,-52.24 742.5,-62.24 749.5,-62.24"/>
</g>
<!-- /Users/mmoscato/nasa/pvslib/pvslib&#45;github/float -->
<g id="node3" class="node">
<title>/Users/mmoscato/nasa/pvslib/pvslib&#45;github/float</title>
<polygon fill="#fcfcd7" stroke="black" points="698,-52 644,-52 644,-16 698,-16 698,-52"/>
<text text-anchor="middle" x="671" y="-30.3" font-family="Times,serif" font-size="14.00">float</text>
</g>
<!-- /Users/mmoscato/nasa/precisa/gitlab_github/PVS/PRECiSA&#45;&gt;/Users/mmoscato/nasa/pvslib/pvslib&#45;github/float -->
<g id="edge2" class="edge">
<title>/Users/mmoscato/nasa/precisa/gitlab_github/PVS/PRECiSA&#45;&gt;/Users/mmoscato/nasa/pvslib/pvslib&#45;github/float</title>
<path fill="none" stroke="black" d="M454.57,-113C524.03,-113 671,-113 671,-113 671,-113 671,-62.32 671,-62.32"/>
<polygon fill="black" stroke="black" points="674.5,-62.32 671,-52.32 667.5,-62.32 674.5,-62.32"/>
</g>
<!-- /Users/mmoscato/nasa/pvslib/pvslib&#45;github/interval_arith -->
<g id="node4" class="node">
<title>/Users/mmoscato/nasa/pvslib/pvslib&#45;github/interval_arith</title>
<polygon fill="#fcfcd7" stroke="black" points="625.5,-52 536.5,-52 536.5,-16 625.5,-16 625.5,-52"/>
<text text-anchor="middle" x="581" y="-30.3" font-family="Times,serif" font-size="14.00">interval_arith</text>
</g>
<!-- /Users/mmoscato/nasa/precisa/gitlab_github/PVS/PRECiSA&#45;&gt;/Users/mmoscato/nasa/pvslib/pvslib&#45;github/interval_arith -->
<g id="edge3" class="edge">
<title>/Users/mmoscato/nasa/precisa/gitlab_github/PVS/PRECiSA&#45;&gt;/Users/mmoscato/nasa/pvslib/pvslib&#45;github/interval_arith</title>
<path fill="none" stroke="black" d="M454.55,-106C502.24,-106 581,-106 581,-106 581,-106 581,-62.17 581,-62.17"/>
<polygon fill="black" stroke="black" points="584.5,-62.17 581,-52.17 577.5,-62.17 584.5,-62.17"/>
</g>
<!-- /Users/mmoscato/nasa/pvslib/pvslib&#45;github/ints -->
<g id="node5" class="node">
<title>/Users/mmoscato/nasa/pvslib/pvslib&#45;github/ints</title>
<polygon fill="#fcfcd7" stroke="black" points="518,-52 464,-52 464,-16 518,-16 518,-52"/>
<text text-anchor="middle" x="491" y="-30.3" font-family="Times,serif" font-size="14.00">ints</text>
</g>
<!-- /Users/mmoscato/nasa/precisa/gitlab_github/PVS/PRECiSA&#45;&gt;/Users/mmoscato/nasa/pvslib/pvslib&#45;github/ints -->
<g id="edge4" class="edge">
<title>/Users/mmoscato/nasa/precisa/gitlab_github/PVS/PRECiSA&#45;&gt;/Users/mmoscato/nasa/pvslib/pvslib&#45;github/ints</title>
<path fill="none" stroke="black" d="M450.25,-98.99C450.25,-74.58 450.25,-34 450.25,-34 450.25,-34 453.59,-34 453.59,-34"/>
<polygon fill="black" stroke="black" points="453.59,-37.5 463.59,-34 453.59,-30.5 453.59,-37.5"/>
</g>
<!-- /Users/mmoscato/nasa/pvslib/pvslib&#45;github/lnexp -->
<g id="node6" class="node">
<title>/Users/mmoscato/nasa/pvslib/pvslib&#45;github/lnexp</title>
<polygon fill="#fcfcd7" stroke="black" points="446,-52 392,-52 392,-16 446,-16 446,-52"/>
<text text-anchor="middle" x="419" y="-30.3" font-family="Times,serif" font-size="14.00">lnexp</text>
</g>
<!-- /Users/mmoscato/nasa/precisa/gitlab_github/PVS/PRECiSA&#45;&gt;/Users/mmoscato/nasa/pvslib/pvslib&#45;github/lnexp -->
<g id="edge5" class="edge">
<title>/Users/mmoscato/nasa/precisa/gitlab_github/PVS/PRECiSA&#45;&gt;/Users/mmoscato/nasa/pvslib/pvslib&#45;github/lnexp</title>
<path fill="none" stroke="black" d="M419,-98.99C419,-98.99 419,-62.26 419,-62.26"/>
<polygon fill="black" stroke="black" points="422.5,-62.26 419,-52.26 415.5,-62.26 422.5,-62.26"/>
</g>
<!-- /Users/mmoscato/nasa/pvslib/pvslib&#45;github/orders -->
<g id="node7" class="node">
<title>/Users/mmoscato/nasa/pvslib/pvslib&#45;github/orders</title>
<polygon fill="#fcfcd7" stroke="black" points="374,-52 320,-52 320,-16 374,-16 374,-52"/>
<text text-anchor="middle" x="347" y="-30.3" font-family="Times,serif" font-size="14.00">orders</text>
</g>
<!-- /Users/mmoscato/nasa/precisa/gitlab_github/PVS/PRECiSA&#45;&gt;/Users/mmoscato/nasa/pvslib/pvslib&#45;github/orders -->
<g id="edge6" class="edge">
<title>/Users/mmoscato/nasa/precisa/gitlab_github/PVS/PRECiSA&#45;&gt;/Users/mmoscato/nasa/pvslib/pvslib&#45;github/orders</title>
<path fill="none" stroke="black" d="M387.75,-98.99C387.75,-74.58 387.75,-34 387.75,-34 387.75,-34 384.41,-34 384.41,-34"/>
<polygon fill="black" stroke="black" points="384.41,-30.5 374.41,-34 384.41,-37.5 384.41,-30.5"/>
</g>
<!-- /Users/mmoscato/nasa/pvslib/pvslib&#45;github/reals -->
<g id="node8" class="node">
<title>/Users/mmoscato/nasa/pvslib/pvslib&#45;github/reals</title>
<polygon fill="#fcfcd7" stroke="black" points="302,-52 248,-52 248,-16 302,-16 302,-52"/>
<text text-anchor="middle" x="275" y="-30.3" font-family="Times,serif" font-size="14.00">reals</text>
</g>
<!-- /Users/mmoscato/nasa/precisa/gitlab_github/PVS/PRECiSA&#45;&gt;/Users/mmoscato/nasa/pvslib/pvslib&#45;github/reals -->
<g id="edge7" class="edge">
<title>/Users/mmoscato/nasa/precisa/gitlab_github/PVS/PRECiSA&#45;&gt;/Users/mmoscato/nasa/pvslib/pvslib&#45;github/reals</title>
<path fill="none" stroke="black" d="M383.4,-106C340.76,-106 275,-106 275,-106 275,-106 275,-62.17 275,-62.17"/>
<polygon fill="black" stroke="black" points="278.5,-62.17 275,-52.17 271.5,-62.17 278.5,-62.17"/>
</g>
<!-- /Users/mmoscato/nasa/pvslib/pvslib&#45;github/series -->
<g id="node9" class="node">
<title>/Users/mmoscato/nasa/pvslib/pvslib&#45;github/series</title>
<polygon fill="#fcfcd7" stroke="black" points="230,-52 176,-52 176,-16 230,-16 230,-52"/>
<text text-anchor="middle" x="203" y="-30.3" font-family="Times,serif" font-size="14.00">series</text>
</g>
<!-- /Users/mmoscato/nasa/precisa/gitlab_github/PVS/PRECiSA&#45;&gt;/Users/mmoscato/nasa/pvslib/pvslib&#45;github/series -->
<g id="edge8" class="edge">
<title>/Users/mmoscato/nasa/precisa/gitlab_github/PVS/PRECiSA&#45;&gt;/Users/mmoscato/nasa/pvslib/pvslib&#45;github/series</title>
<path fill="none" stroke="black" d="M383.33,-113C321.98,-113 203,-113 203,-113 203,-113 203,-62.32 203,-62.32"/>
<polygon fill="black" stroke="black" points="206.5,-62.32 203,-52.32 199.5,-62.32 206.5,-62.32"/>
</g>
<!-- /Users/mmoscato/nasa/pvslib/pvslib&#45;github/structures -->
<g id="node10" class="node">
<title>/Users/mmoscato/nasa/pvslib/pvslib&#45;github/structures</title>
<polygon fill="#fcfcd7" stroke="black" points="157.5,-52 88.5,-52 88.5,-16 157.5,-16 157.5,-52"/>
<text text-anchor="middle" x="123" y="-30.3" font-family="Times,serif" font-size="14.00">structures</text>
</g>
<!-- /Users/mmoscato/nasa/precisa/gitlab_github/PVS/PRECiSA&#45;&gt;/Users/mmoscato/nasa/pvslib/pvslib&#45;github/structures -->
<g id="edge9" class="edge">
<title>/Users/mmoscato/nasa/precisa/gitlab_github/PVS/PRECiSA&#45;&gt;/Users/mmoscato/nasa/pvslib/pvslib&#45;github/structures</title>
<path fill="none" stroke="black" d="M383.3,-120C304.57,-120 123,-120 123,-120 123,-120 123,-62.24 123,-62.24"/>
<polygon fill="black" stroke="black" points="126.5,-62.24 123,-52.24 119.5,-62.24 126.5,-62.24"/>
</g>
<!-- /Users/mmoscato/nasa/pvslib/pvslib&#45;github/trig -->
<g id="node11" class="node">
<title>/Users/mmoscato/nasa/pvslib/pvslib&#45;github/trig</title>
<polygon fill="#fcfcd7" stroke="black" points="70,-52 16,-52 16,-16 70,-16 70,-52"/>
<text text-anchor="middle" x="43" y="-30.3" font-family="Times,serif" font-size="14.00">trig</text>
</g>
<!-- /Users/mmoscato/nasa/precisa/gitlab_github/PVS/PRECiSA&#45;&gt;/Users/mmoscato/nasa/pvslib/pvslib&#45;github/trig -->
<g id="edge10" class="edge">
<title>/Users/mmoscato/nasa/precisa/gitlab_github/PVS/PRECiSA&#45;&gt;/Users/mmoscato/nasa/pvslib/pvslib&#45;github/trig</title>
<path fill="none" stroke="black" d="M383.29,-127C289.43,-127 43,-127 43,-127 43,-127 43,-62.37 43,-62.37"/>
<polygon fill="black" stroke="black" points="46.5,-62.37 43,-52.37 39.5,-62.37 46.5,-62.37"/>
</g>
<!-- /Users/mmoscato/pvs/7.1.0&#45;ix86&#45;MacOSX&#45;allegro/lib/finite_sets -->
<g id="node12" class="node">
<title>/Users/mmoscato/pvs/7.1.0&#45;ix86&#45;MacOSX&#45;allegro/lib/finite_sets</title>
<polygon fill="#fcfcd7" stroke="black" points="871.5,-52 800.5,-52 800.5,-16 871.5,-16 871.5,-52"/>
<text text-anchor="middle" x="836" y="-30.3" font-family="Times,serif" font-size="14.00">finite_sets</text>
</g>
<!-- /Users/mmoscato/nasa/precisa/gitlab_github/PVS/PRECiSA&#45;&gt;/Users/mmoscato/pvs/7.1.0&#45;ix86&#45;MacOSX&#45;allegro/lib/finite_sets -->
<g id="edge11" class="edge">
<title>/Users/mmoscato/nasa/precisa/gitlab_github/PVS/PRECiSA&#45;&gt;/Users/mmoscato/pvs/7.1.0&#45;ix86&#45;MacOSX&#45;allegro/lib/finite_sets</title>
<path fill="none" stroke="black" d="M454.55,-127C555.4,-127 836,-127 836,-127 836,-127 836,-62.37 836,-62.37"/>
<polygon fill="black" stroke="black" points="839.5,-62.37 836,-52.37 832.5,-62.37 839.5,-62.37"/>
</g>
</g>
</svg>
